<svg width="80" height="23" viewBox="0 0 80 23" fill="none" xmlns="http://www.w3.org/2000/svg">
<path d="M1.98903 18C1.63703 18 1.36503 17.912 1.17303 17.736C0.99703 17.544 0.90903 17.272 0.90903 16.92V2.16C0.90903 1.808 0.99703 1.544 1.17303 1.368C1.36503 1.176 1.63703 1.08 1.98903 1.08H10.917C11.189 1.08 11.397 1.152 11.541 1.296C11.685 1.44 11.757 1.64 11.757 1.896C11.757 2.168 11.685 2.376 11.541 2.52C11.397 2.664 11.189 2.736 10.917 2.736H2.82903V8.592H10.413C10.685 8.592 10.893 8.664 11.037 8.808C11.181 8.936 11.253 9.136 11.253 9.408C11.253 9.68 11.181 9.888 11.037 10.032C10.893 10.176 10.685 10.248 10.413 10.248H2.82903V16.344H10.917C11.189 16.344 11.397 16.416 11.541 16.56C11.685 16.704 11.757 16.904 11.757 17.16C11.757 17.432 11.685 17.64 11.541 17.784C11.397 17.928 11.189 18 10.917 18H1.98903ZM14.6852 18.144C14.4772 18.144 14.2932 18.08 14.1332 17.952C13.9732 17.824 13.8852 17.656 13.8692 17.448C13.8692 17.224 13.9732 16.992 14.1812 16.752L18.3812 11.472V12.48L14.4452 7.56C14.2372 7.304 14.1332 7.072 14.1332 6.864C14.1492 6.656 14.2372 6.488 14.3972 6.36C14.5572 6.232 14.7412 6.168 14.9492 6.168C15.1892 6.168 15.3892 6.216 15.5492 6.312C15.7252 6.392 15.8852 6.528 16.0292 6.72L19.4612 11.064H18.7892L22.2452 6.72C22.3892 6.528 22.5412 6.392 22.7012 6.312C22.8612 6.216 23.0612 6.168 23.3012 6.168C23.5252 6.168 23.7092 6.232 23.8532 6.36C24.0132 6.488 24.0932 6.664 24.0932 6.888C24.1092 7.096 24.0132 7.328 23.8052 7.584L19.8932 12.432V11.544L24.0932 16.752C24.2852 16.992 24.3732 17.224 24.3572 17.448C24.3572 17.656 24.2772 17.824 24.1172 17.952C23.9572 18.08 23.7652 18.144 23.5412 18.144C23.3172 18.144 23.1172 18.096 22.9412 18C22.7812 17.92 22.6212 17.784 22.4612 17.592L18.7652 12.936H19.4612L15.7652 17.592C15.6212 17.768 15.4612 17.904 15.2852 18C15.1252 18.096 14.9252 18.144 14.6852 18.144ZM28.2066 22.488C27.8866 22.488 27.6466 22.4 27.4866 22.224C27.3266 22.064 27.2466 21.824 27.2466 21.504V7.152C27.2466 6.832 27.3266 6.592 27.4866 6.432C27.6466 6.256 27.8786 6.168 28.1826 6.168C28.5026 6.168 28.7426 6.256 28.9026 6.432C29.0786 6.592 29.1666 6.832 29.1666 7.152V9.432L28.9026 9.096C29.1586 8.184 29.6626 7.464 30.4146 6.936C31.1826 6.392 32.0946 6.12 33.1506 6.12C34.1906 6.12 35.0946 6.368 35.8626 6.864C36.6466 7.344 37.2466 8.04 37.6626 8.952C38.0946 9.848 38.3106 10.92 38.3106 12.168C38.3106 13.4 38.0946 14.472 37.6626 15.384C37.2466 16.28 36.6546 16.976 35.8866 17.472C35.1186 17.968 34.2066 18.216 33.1506 18.216C32.0946 18.216 31.1906 17.952 30.4386 17.424C29.6866 16.88 29.1746 16.16 28.9026 15.264H29.1906V21.504C29.1906 21.824 29.1026 22.064 28.9266 22.224C28.7506 22.4 28.5106 22.488 28.2066 22.488ZM32.7426 16.656C33.4786 16.656 34.1106 16.48 34.6386 16.128C35.1826 15.776 35.5986 15.264 35.8866 14.592C36.1906 13.92 36.3426 13.112 36.3426 12.168C36.3426 10.712 36.0146 9.6 35.3586 8.832C34.7186 8.064 33.8466 7.68 32.7426 7.68C32.0226 7.68 31.3906 7.856 30.8466 8.208C30.3026 8.544 29.8786 9.048 29.5746 9.72C29.2866 10.376 29.1426 11.192 29.1426 12.168C29.1426 13.608 29.4706 14.72 30.1266 15.504C30.7826 16.272 31.6546 16.656 32.7426 16.656ZM46.0868 18.216C44.9508 18.216 43.9668 17.968 43.1348 17.472C42.3028 16.976 41.6548 16.28 41.1908 15.384C40.7428 14.472 40.5188 13.4 40.5188 12.168C40.5188 11.24 40.6468 10.408 40.9028 9.672C41.1588 8.92 41.5348 8.28 42.0308 7.752C42.5268 7.224 43.1108 6.824 43.7828 6.552C44.4708 6.264 45.2388 6.12 46.0868 6.12C47.2228 6.12 48.2068 6.368 49.0388 6.864C49.8708 7.36 50.5108 8.064 50.9588 8.976C51.4228 9.872 51.6548 10.936 51.6548 12.168C51.6548 13.096 51.5268 13.928 51.2708 14.664C51.0148 15.4 50.6388 16.04 50.1428 16.584C49.6468 17.112 49.0548 17.52 48.3668 17.808C47.6948 18.08 46.9348 18.216 46.0868 18.216ZM46.0868 16.656C46.8068 16.656 47.4388 16.48 47.9828 16.128C48.5268 15.776 48.9428 15.264 49.2308 14.592C49.5348 13.92 49.6868 13.112 49.6868 12.168C49.6868 10.712 49.3588 9.6 48.7028 8.832C48.0628 8.064 47.1908 7.68 46.0868 7.68C45.3508 7.68 44.7108 7.856 44.1668 8.208C43.6388 8.544 43.2228 9.048 42.9188 9.72C42.6308 10.376 42.4868 11.192 42.4868 12.168C42.4868 13.608 42.8148 14.72 43.4708 15.504C44.1268 16.272 44.9988 16.656 46.0868 16.656ZM55.8227 18.168C55.5027 18.168 55.2547 18.08 55.0787 17.904C54.9187 17.712 54.8387 17.456 54.8387 17.136V1.944C54.8387 1.608 54.9187 1.352 55.0787 1.176C55.2547 1 55.5027 0.912 55.8227 0.912C56.1427 0.912 56.3827 1 56.5427 1.176C56.7187 1.352 56.8067 1.608 56.8067 1.944V17.136C56.8067 17.456 56.7267 17.712 56.5667 17.904C56.4067 18.08 56.1587 18.168 55.8227 18.168ZM65.4188 18.216C64.5068 18.216 63.7388 18.056 63.1148 17.736C62.5068 17.4 62.0508 16.92 61.7468 16.296C61.4428 15.656 61.2908 14.88 61.2908 13.968V7.848H59.6828C59.4108 7.848 59.2028 7.784 59.0588 7.656C58.9148 7.512 58.8428 7.32 58.8428 7.08C58.8428 6.84 58.9148 6.656 59.0588 6.528C59.2028 6.4 59.4108 6.336 59.6828 6.336H61.2908V3.576C61.2908 3.256 61.3788 3.016 61.5548 2.856C61.7308 2.68 61.9708 2.592 62.2748 2.592C62.5788 2.592 62.8108 2.68 62.9708 2.856C63.1468 3.016 63.2348 3.256 63.2348 3.576V6.336H66.2588C66.5308 6.336 66.7388 6.4 66.8828 6.528C67.0268 6.656 67.0988 6.84 67.0988 7.08C67.0988 7.32 67.0268 7.512 66.8828 7.656C66.7388 7.784 66.5308 7.848 66.2588 7.848H63.2348V13.776C63.2348 14.688 63.4268 15.384 63.8108 15.864C64.1948 16.328 64.8188 16.56 65.6828 16.56C65.9868 16.56 66.2428 16.528 66.4508 16.464C66.6748 16.4 66.8588 16.368 67.0028 16.368C67.1468 16.352 67.2668 16.4 67.3628 16.512C67.4588 16.624 67.5068 16.816 67.5068 17.088C67.5068 17.28 67.4668 17.456 67.3868 17.616C67.3228 17.776 67.2028 17.888 67.0268 17.952C66.8348 18.016 66.5788 18.072 66.2588 18.12C65.9548 18.184 65.6748 18.216 65.4188 18.216ZM73.8602 18.216C72.7242 18.216 71.7402 17.968 70.9082 17.472C70.0762 16.976 69.4282 16.28 68.9642 15.384C68.5162 14.472 68.2922 13.4 68.2922 12.168C68.2922 11.24 68.4202 10.408 68.6762 9.672C68.9322 8.92 69.3082 8.28 69.8042 7.752C70.3002 7.224 70.8842 6.824 71.5562 6.552C72.2442 6.264 73.0122 6.12 73.8602 6.12C74.9962 6.12 75.9802 6.368 76.8122 6.864C77.6442 7.36 78.2842 8.064 78.7322 8.976C79.1962 9.872 79.4282 10.936 79.4282 12.168C79.4282 13.096 79.3002 13.928 79.0442 14.664C78.7882 15.4 78.4122 16.04 77.9162 16.584C77.4202 17.112 76.8282 17.52 76.1402 17.808C75.4682 18.08 74.7082 18.216 73.8602 18.216ZM73.8602 16.656C74.5802 16.656 75.2122 16.48 75.7562 16.128C76.3002 15.776 76.7162 15.264 77.0042 14.592C77.3082 13.92 77.4602 13.112 77.4602 12.168C77.4602 10.712 77.1322 9.6 76.4762 8.832C75.8362 8.064 74.9642 7.68 73.8602 7.68C73.1242 7.68 72.4842 7.856 71.9402 8.208C71.4122 8.544 70.9962 9.048 70.6922 9.72C70.4042 10.376 70.2602 11.192 70.2602 12.168C70.2602 13.608 70.5882 14.72 71.2442 15.504C71.9002 16.272 72.7722 16.656 73.8602 16.656Z" fill="#FEFEFE"/>
</svg>
