<svg width="96" height="37" viewBox="0 0 96 37" fill="none" xmlns="http://www.w3.org/2000/svg">
<path d="M0 0H24.3629V24.3629H0V0Z" fill="white" fill-opacity="0.01"/>
<path d="M74.7127 23.0432H94V33.702C94 34.2626 93.5455 34.7171 92.9848 34.7171H75.7278C75.1672 34.7171 74.7127 34.2626 74.7127 33.702V23.0432Z" fill="#2F88FF" stroke="black" stroke-width="3.4932" stroke-linejoin="round"/>
<path d="M74.7127 17.9676C74.7127 17.407 75.1672 16.9525 75.7278 16.9525H92.9848C93.5455 16.9525 94 17.407 94 17.9676V23.0432H74.7127V17.9676Z" stroke="black" stroke-width="3.4932" stroke-linejoin="round"/>
<path d="M80.2959 15.4298V19.4903" stroke="black" stroke-width="3.4932" stroke-linecap="round" stroke-linejoin="round"/>
<path d="M88.4168 15.4298V19.4903" stroke="black" stroke-width="3.4932" stroke-linecap="round" stroke-linejoin="round"/>
<path d="M86.3866 30.6566H89.432" stroke="white" stroke-width="3.4932" stroke-linecap="round" stroke-linejoin="round"/>
<path d="M79.2808 30.6566H82.3261" stroke="white" stroke-width="3.4932" stroke-linecap="round" stroke-linejoin="round"/>
<path d="M86.3866 26.5961H89.432" stroke="white" stroke-width="3.4932" stroke-linecap="round" stroke-linejoin="round"/>
<path d="M79.2808 26.5961H82.3261" stroke="white" stroke-width="3.4932" stroke-linecap="round" stroke-linejoin="round"/>
</svg>
