<svg width="66" height="80" viewBox="0 0 66 80" fill="none" xmlns="http://www.w3.org/2000/svg">
<path d="M0 50H30V80H0V50Z" fill="white" fill-opacity="0.01"/>
<path d="M55.375 26C55.375 26 64.75 18.5 64.75 10.375C64.75 5.19731 60.5527 1 55.375 1C50.1973 1 46 5.19731 46 10.375C46 18.5 55.375 26 55.375 26Z" fill="#2F88FF" stroke="black" stroke-width="1.51916" stroke-linejoin="round"/>
<path d="M55.375 14.125C57.446 14.125 59.125 12.4461 59.125 10.375C59.125 8.30394 57.446 6.625 55.375 6.625C53.3039 6.625 51.625 8.30394 51.625 10.375C51.625 12.4461 53.3039 14.125 55.375 14.125Z" fill="#43CCF8" stroke="white" stroke-width="1.51916" stroke-linejoin="round"/>
</svg>
